<svg xmlns="http://www.w3.org/2000/svg" width="250" height="250" viewBox="0 0 250 250">
<!-- SVG created with Arrow, by QuiverAI (https://quiver.ai) -->
  <path d="m238.5 121h-2.97v-8.16c7.54-6.86 11.79-17.15 8.44-28.27-1.36-4.64-4.73-10.28-6.7-12.96-1.47-2.17-4.81-0.92-4.22 1.91 2.63 12.06-4.31 21.18-15.14 23.28-0.76-3.07-2.94-5.26-6.65-5.26l-8.81 0.04v-1.8c0-4.9-3.07-7.03-6.44-7.03h-7.63c-4.98 0-7.67 4.03-7.67 7.75v20.77l2.3-2.38c1.84-1.91 2.11-3.75 2.11-6.91l0.15-11.75c0-1.91 1.05-3.01 2.63-3.01h6.94c1.76 0 2.69 1.38 2.69 3.01v6.52c0 5.29-7.73 12.47-6.93 16.68 0.2 1.04 2.24 1.63 3.11 0.32l2.91-4.67c0.38-0.63 0.91-0.4 0.91 0.09v61.91c0 2.13-0.95 3.33-2.63 3.33h-6.48c-1.72 0-2.76-1.63-2.76-3.33v-15.02l5.31-7.97c1.1-1.73-1.67-3.8-3.15-1.76l-2.32 3.33v-33.79c0-1.91-0.77-2.81-2.37-2.81-1.42 0-2.42 1.04-2.42 2.81v4.76l-47.3-2.13c-1.11-0.12-2.16 0.08-2.84 1.08l-2.67 3.55c-1.18 1.7-0.23 3.3 1.76 4.44l3.75 2.15-5.98 4.5c-1.64 1.26-1.37 3.69 1.34 3.93l51.94 2.99v30.35c0 5.1 3.07 7.45 6.99 7.45h7.3c5.05 0 6.9-3.63 6.9-7.86v-1.18l9.05-0.32c5.1-0.2 6.6-2.41 7.15-5.22h7.67c6.57 0 8.93-3.77 8.93-8.18v-15.59h3.56c4.57 0 6.51-2.68 6.51-6.53v-6.13c0-4.53-2.37-6.93-6.27-6.93zm-57.79 4.58v10.9l-23.8-1.52-4.67-5.55c-1.08-1.16-2.46-0.24-1.83 1.26l1.24 3.59-16.57-1.3 3.63-2.81c1.2-0.94 0.44-2.93-0.79-3.76l-3.15-2.83 26.71 1.42-1.68 1.1c-1.64 1.06-0.87 2.97 1.12 2.77 4.26-0.43 7.19-1.63 8.88-3.67l10.91 0.4zm57.4-42c3.69 12.5-4.63 27.4-18.86 30.17v-11.71c8.94-2.01 16.55-8.56 18.86-18.46zm-25.41 81.69h-3.59l-0.4-18.47c-0.04-1.8-2.63-1.8-2.75 0.08l-2.35 18.39h-1.2v-68.09c0-0.82 0.69-1.13 1.36-1.13h7.34c1.87 0 2.79 1.45 2.79 3.25v63.46c0 1.34-0.4 2.51-1.2 2.51zm15.21-6.29c-1.74 0.71-6.49 0.63-8.58-0.27v-40.21c3.85-0.32 7.67-1.54 10.64-3.1v32.01l-2.06-3.36c-1.27-1.95-4.21-0.11-2.66 2.35l5 7.73c0.47 1.66 0 3.98-2.34 4.85zm11.9-25.04c0 1.15-0.79 1.74-1.99 1.74h-2.55v-9.98h2.79c1.28 0 1.75 1 1.75 2.16v6.08z" fill="#1D252D"/>
  <path d="m123.1 125.9-2.87-1.13 0.47-2.22c0.73-2.45 0-3.91-2.22-3.83l-49.87 2.38v-31.38c0-4.65-3.07-7.07-6.44-7.07l-7.89 0.08c-4.98 0-6.53 4.35-6.53 6.99v1.88l-10.91 0.12c-2.91 0.16-4.74 2.03-5.74 4.58-10.03-1.96-17.77-9.38-15.02-22.52 0.59-2.75-2.95-3.76-3.98-1.92-8.36 12.34-10.8 25.94 1.84 40.21l1.07 1.22v7.42h-2.97c-4.57 0-6.21 3.46-6.21 6.85v5.84c0 4.33 2.71 6.82 6.15 6.82h3.01v15.67c0 6.73 3.96 8.61 7.63 8.57l7.27-0.2c0.47 4.51 3.62 5.85 7.11 5.77l10.51-0.11v1.48c0 4.7 2.97 7.29 6.73 7.29h7.38c4.98 0 6.97-3.59 6.97-6.78v-15.51l-0.71-2.69 0.71-1.99v-10.99l49.65-2.72c0.92-0.08 1.71-0.76 2.3-1.8l4.3-6.35c0.89-1.5 0.39-3.14-1.74-3.96zm-111.8-34.64c0-2.45 0.55-5.13 1.07-7.06 2.51 9.28 9.8 15.4 17.82 16.75v12.95c-10.66-1.83-18.89-11.19-18.89-22.64zm4.06 44.4h-3.15c-1.23 0-1.91-0.94-1.91-2.17v-5.29c0-1.2 0.92-1.95 2.11-1.95h2.95v9.41zm12.47 23.46h-4.94c-2.15 0-3.24-1.7-3.24-3.94v-4.1l6.02-8.04c1.45-2.15-1.34-4.02-2.78-2.11l-3.24 4.11v-29.19c3.48 1.56 7.07 2.59 10.54 2.95v39.89c-0.27 0.27-1.23 0.43-2.36 0.43zm19.23 5.77h-2.79l-1.99-10.7c-0.39-1.91-2.62-1.71-2.66 0.12l-0.2 10.58h-2.71c-1.2 0-1.63-1.68-1.63-2.98v-62.19c0-1.52 0.79-2.67 2.18-2.67h1.61l0.91 11.66c0.16 2.23 2.94 2.03 2.94-0.16l0.56-11.5h3.78v67.84zm16.82-61.94-5.98 11.66c-0.76 1.6 1.99 2.88 3.14 1.05l2.84-5.37v40.12l1.19 3.66-1.59 3.43v13.41c0 1.79-1.24 2.93-2.8 2.93h-5.94c-1.56 0-2.63-1.16-2.63-3.11v-80.85c0-1.78 1.07-2.76 2.63-2.76h6.63c1.74 0 2.51 1.46 2.51 3.03v12.8zm53.36 30.1-28.21 1.76 2.47-2.81c1.39-1.75-0.36-3.8-2.43-2.06l-6.98 4.87-13.45 0.69v-8.78l27.62-1.72 1.87 2.95c1.03 1.52 3.26 0.41 2.23-1.5l-1.04-1.72 14.87-1.23-1.72 3.07c-0.8 1.46 0.44 3.21 2.39 3.53l3.81 0.82-1.43 2.13z" fill="#1D252D"/>
</svg>