<svg xmlns="http://www.w3.org/2000/svg" width="256" height="256" fill="none" viewBox="0 0 256 256">
<!-- SVG created with Arrow, by QuiverAI (https://quiver.ai) -->
  <path d="m174.7 154.8 76.08-55.55h-94.56l-28.45-88.95-28.46 88.95h-94.11l75.68 55.66-29.32 90.83 76.08-56.21 75.92 56.21-28.86-90.94zm39.23-43.59-43.37 32.02-9.94-32.02h53.31zm-86.22-62.64 16.35 50.26h-32.74l16.39-50.26zm-86.76 62.64h54.31l-10.4 32.09-43.91-32.09zm33.03 102.3 17.38-50.69 26.6 19.92-43.98 30.77zm53.73-38.82-32.78-24.46 12.74-39.02h40.2l12.75 38.6-32.91 24.88zm9.5 7.94 27.67-19.81 16.96 50.62-44.63-30.81z" fill="#000"/>
</svg>